#N canvas 1210 277 563 529 10;
#X obj 31 30 netreceive 3000 1;
#X obj 204 259 *~;
#X obj 158 178 line;
#X floatatom 158 201 5 0 0 0 - - - 0;
#X msg 269 103 \; pd dsp 1;
#X obj 269 73 loadbang;
#X obj 204 332 dac~;
#X obj 204 309 *~ 0.1;
#X obj 31 78 route 0;
#X text 85 79 reading device 0;
#X obj 31 101 sel 0 1;
#X msg 31 124 0 2000;
#X msg 90 123 1 100;
#X obj 204 236 osc~ 200;
#X connect 0 0 8 0;
#X connect 1 0 7 0;
#X connect 2 0 3 0;
#X connect 3 0 1 1;
#X connect 5 0 4 0;
#X connect 7 0 6 0;
#X connect 7 0 6 1;
#X connect 8 0 10 0;
#X connect 10 0 11 0;
#X connect 10 1 12 0;
#X connect 11 0 2 0;
#X connect 12 0 2 0;
#X connect 13 0 1 0;
